<?xml version="1.0" encoding="utf-8"?>
<svg version="1.1" id="Capa_1" xmlns="http://www.w3.org/2000/svg" xmlns:xlink="http://www.w3.org/1999/xlink" x="0px" y="0px"
	 viewBox="0 0 6.2 6.2" style="enable-background:new 0 0 6.2 6.2;" xml:space="preserve">
<style type="text/css">
	.st0{fill:#FFFFFF;}
</style>
<g>
	<path class="st0" d="M3.7,3.1l2.5-2.5c0.2-0.2,0.2-0.4,0-0.6C6,0,5.7,0,5.6,0.1L3.1,2.6L0.7,0.1C0.5,0,0.3,0,0.1,0.1
		C0,0.3,0,0.5,0.1,0.7l2.5,2.5L0.1,5.6C0,5.7,0,6,0.1,6.1c0.1,0.1,0.2,0.1,0.3,0.1s0.2,0,0.3-0.1l2.5-2.5l2.5,2.5
		c0.1,0.1,0.2,0.1,0.3,0.1s0.2,0,0.3-0.1c0.2-0.2,0.2-0.4,0-0.6L3.7,3.1z"/>
</g>
</svg>
