<svg xmlns="http://www.w3.org/2000/svg" width="64.862" height="60.44" viewBox="0 0 64.862 60.44"><defs><style>.a{fill:#8cbcd6;}.b{fill:#b3ddf5;}.c{fill:#9ac9e3;}.d{fill:#e57373;}.e{fill:#ff9800;}.f{fill:#b0bec5;}.g{fill:#ffc107;}.h{fill:#37474f;}</style></defs><g transform="translate(-4 -7)"><path class="a" d="M43.8,57.121H9.9a5.914,5.914,0,0,1-5.9-5.9V12.9A5.914,5.914,0,0,1,9.9,7H57.069a5.914,5.914,0,0,1,5.9,5.9v25.06A19.126,19.126,0,0,1,43.8,57.121Z" transform="translate(0 0)"/><circle class="b" cx="4.5" cy="4.5" r="4.5" transform="translate(45 16)"/><path class="c" d="M25.216,16,9,39.586H41.431Z" transform="translate(2.371 4.267)"/><path class="b" d="M34.793,22,23,36.741H46.586Z" transform="translate(9.009 7.112)"/><path class="d" d="M50.4,30.57l-4.128-4.128a1.791,1.791,0,0,0-2.359,0L42,28.359l6.486,6.486L50.4,32.928A1.791,1.791,0,0,0,50.4,30.57Z" transform="translate(18.017 9.009)"/><rect class="e" width="25.65" height="9.14" transform="translate(38.594 58.841) rotate(-45)"/><rect class="f" width="4.57" height="9.14" transform="translate(66.503 43.909) rotate(135)"/><path class="g" d="M28.211,42.2,26,50.75l8.55-2.211Z" transform="translate(10.431 16.69)"/><path class="h" d="M27.032,45,26,49.422l4.422-1.032Z" transform="translate(10.431 18.017)"/></g></svg>