<?xml version="1.0" encoding="utf-8"?>
<!-- Generator: Adobe Illustrator 24.0.1, SVG Export Plug-In . SVG Version: 6.00 Build 0)  -->
<svg version="1.1" id="Calque_1" xmlns="http://www.w3.org/2000/svg" xmlns:xlink="http://www.w3.org/1999/xlink" x="0px" y="0px"
	 viewBox="0 0 50 50" style="enable-background:new 0 0 50 50;" xml:space="preserve">
<style type="text/css">
	.st0{fill:#32E5EF;}
</style>
<g>
	<path class="st0" d="M47.3,16l-6.5-6.5c-0.4-0.4-1-0.6-1.5-0.6l-9.2,0.8C22.2,3,12.2,0.4,4,3.2L3.4,3.4L3.2,4
		c-2.8,8.2-0.2,18.1,6.6,26L9,39.3c-0.1,0.5,0.1,1.1,0.6,1.5l6.4,6.5c0.3,0.3,0.8,0.5,1.3,0.5c0.2,0,0.4,0,0.6-0.1
		c0.7-0.2,1.2-0.8,1.3-1.6l1-7.8c1.6,0.8,3.4,1.5,5.1,2.1l0.2,0c0.4,0.1,0.8,0,1-0.2l13.8-13.8c0.2-0.2,0.3-0.6,0.2-1l0-0.1
		c-0.5-1.8-1.2-3.5-2.1-5.1l7.8-1c0.8-0.1,1.3-0.6,1.6-1.3C48,17.3,47.8,16.5,47.3,16z M16.8,44.2l-5-5l0.6-6.4
		c1.6,1.6,3.4,3,5.3,4.2L16.8,44.2z M25.4,37.6c-4.2-1.5-8.3-4-11.8-7.4c-7.1-7.1-10.2-16.9-8-24.6c7.7-2.2,17.5,0.9,24.6,8
		c3.5,3.5,6,7.5,7.4,11.8L25.4,37.6z M37,17.7c-1.2-1.9-2.6-3.6-4.2-5.3l6.4-0.6l5,5L37,17.7z"/>
	<path class="st0" d="M17,17c-1.9,1.9-1.9,4.9,0,6.8c1,1,2.1,1.4,3.4,1.4s2.5-0.5,3.4-1.4c1.9-1.9,1.9-4.9,0-6.8
		C21.9,15.2,18.9,15.2,17,17z M21.8,21.8c-0.8,0.8-2,0.8-2.9,0s-0.8-2,0-2.9c0.4-0.4,0.9-0.6,1.4-0.6s1,0.2,1.4,0.6
		C22.6,19.7,22.6,21,21.8,21.8z"/>
	<path class="st0" d="M43,29.6c-0.5-0.5-1.4-0.5-2,0L29.5,41.2c-0.5,0.5-0.5,1.4,0,2c0.1,0.1,0.2,0.2,0.4,0.2c4.6,3,10.2,3.8,14.6,2
		c0.2,0,0.3-0.2,0.5-0.3s0.2-0.3,0.3-0.5c1.8-4.4,1-10-2-14.6C43.2,29.9,43.1,29.8,43,29.6z M42.9,43c-3.1,1-6.8,0.7-10.2-1.2l9-9
		C43.5,36.2,44,39.9,42.9,43z"/>
</g>
</svg>
