<?xml version="1.0" encoding="utf-8"?>
<!-- Generator: Adobe Illustrator 24.0.1, SVG Export Plug-In . SVG Version: 6.00 Build 0)  -->
<svg version="1.1" id="Calque_1" xmlns="http://www.w3.org/2000/svg" xmlns:xlink="http://www.w3.org/1999/xlink" x="0px" y="0px"
	 viewBox="0 0 320 60" style="enable-background:new 0 0 320 60;" xml:space="preserve">
<style type="text/css">
	.st0{enable-background:new    ;}
	.st1{fill:#32E5EF;}
</style>
<g class="st0">
	<path class="st1" d="M45.1,45.5c-0.6,0.6-1.2,1.1-2,1.4c-0.7,0.3-1.5,0.5-2.4,0.5s-1.7-0.2-2.5-0.5s-1.5-0.9-2.1-1.7
		c-0.7-0.8-1.1-1.7-1.4-2.9l-6.2-21l-6.2,21c-0.3,1.1-0.8,2.1-1.4,2.9c-0.7,0.8-1.4,1.3-2.1,1.7c-0.8,0.3-1.6,0.5-2.5,0.5
		s-1.7-0.1-2.4-0.5c-0.8-0.3-1.4-0.8-2-1.4c-0.6-0.6-0.9-1.4-1.1-2.2L4.9,18.4c-0.4-1.6,0-3,1.1-4c1-1.1,2.2-1.4,3.6-0.9
		s2.3,1.7,2.7,3.7L17,38.4l5.4-17.7c0.3-1.1,0.6-2.1,0.9-2.9s0.7-1.5,1.2-2.2s1-1.2,1.7-1.5s1.5-0.5,2.4-0.5s1.7,0.2,2.4,0.5
		s1.3,0.8,1.7,1.5c0.5,0.7,0.8,1.4,1.1,2.2s0.6,1.7,0.9,2.9l5.4,17.7l4.7-21.2c0.4-2,1.3-3.3,2.7-3.7c1.4-0.5,2.6-0.2,3.6,0.9
		s1.4,2.4,1.1,4l-5.9,24.9C46,44.2,45.7,44.9,45.1,45.5z"/>
	<path class="st1" d="M59.3,46.6c-0.6-0.3-1-0.8-1.3-1.4c-0.3-0.6-0.5-1.2-0.7-1.9c-0.1-0.7-0.2-1.4-0.2-2.1V20.4
		c0-0.9,0-1.6,0.1-2.2s0.2-1.2,0.4-1.8c0.2-0.6,0.5-1.1,0.9-1.5s0.9-0.7,1.5-0.9c0.7-0.2,1.4-0.3,2.4-0.3h14.8
		c0.9,0,1.6,0.3,2.3,0.9c0.6,0.6,0.9,1.3,0.9,2.2s-0.3,1.6-0.9,2.2s-1.4,0.9-2.3,0.9H65.3V27h10.8c0.9,0,1.6,0.3,2.3,0.9
		c0.6,0.6,0.9,1.3,0.9,2.2c0,0.9-0.3,1.6-0.9,2.2s-1.4,0.9-2.3,0.9H65.3v7.7h12.4c0.8,0,1.5,0.3,2.1,0.9c0.6,0.6,0.9,1.3,0.9,2.2
		s-0.3,1.6-0.9,2.2c-0.6,0.6-1.3,0.9-2.1,0.9H61.2C60.5,47.1,59.8,46.9,59.3,46.6z"/>
	<path class="st1" d="M88.7,46.9c-0.6-0.1-1.1-0.4-1.6-0.9c-0.5-0.4-0.8-1.1-1.1-2c-0.2-0.9-0.3-2-0.3-3.4V18c0-1.5,0.5-2.5,1.5-3.2
		s2.3-1,3.8-1h6.6c0.1,0,0.4,0,0.6,0c0.9,0,1.7,0,2.1,0c0.5,0,1.1,0,2.1,0.1s1.6,0.1,2.1,0.2c0.5,0.1,1.1,0.2,1.9,0.4
		s1.4,0.4,1.8,0.7s0.9,0.6,1.4,1.1c0.5,0.4,0.9,0.9,1.2,1.5s0.5,1.2,0.7,2s0.3,1.6,0.3,2.5c0,1.8-0.6,3.4-1.7,4.8
		c-1.2,1.4-2.7,2.3-4.5,2.6v0.1c2.3,0.3,4.1,1.2,5.4,2.7c1.4,1.5,2,3.3,2,5.3c0,1.2-0.2,2.4-0.7,3.5s-1.2,2.1-2.1,3
		s-2.1,1.6-3.6,2.1s-3.2,0.8-5.2,0.8H91C90.1,47.1,89.3,47,88.7,46.9z M96.8,28c1.1,0,2-0.1,2.8-0.2s1.5-0.4,2.2-0.7
		c0.7-0.3,1.2-0.8,1.5-1.4s0.5-1.4,0.5-2.3s-0.2-1.7-0.5-2.3c-0.3-0.6-0.8-1.1-1.4-1.4s-1.3-0.5-2-0.7c-0.7-0.1-1.6-0.2-2.6-0.2
		h-3.4V28H96.8z M97.2,41.8c1.3,0,2.4-0.1,3.3-0.2c0.9-0.1,1.6-0.4,2.3-0.7c0.7-0.4,1.2-0.9,1.5-1.5c0.3-0.7,0.5-1.5,0.5-2.5
		c0-1.7-0.7-3-2-3.7s-3.2-1.1-5.8-1.1h-3.1v9.7H97.2z"/>
	<path class="st1" d="M120.1,46c-0.7-0.7-1.1-1.5-1.3-2.5c-0.2-1-0.4-2.1-0.4-3.3V18.4c0-1.3,0.4-2.4,1.2-3.4c0.8-0.9,1.8-1.4,3-1.4
		s2.2,0.5,3,1.4s1.2,2.1,1.2,3.4v22.3h11.5c0.8,0,1.6,0.3,2.1,0.9c0.6,0.6,0.9,1.4,0.9,2.2c0,0.9-0.3,1.6-0.9,2.3
		c-0.6,0.6-1.3,0.9-2.1,0.9h-15.7C121.6,47.1,120.8,46.7,120.1,46z"/>
	<path class="st1" d="M166.1,39.5h-13.5l-1.5,4.3c-0.4,1.1-0.9,1.9-1.6,2.4c-0.7,0.6-1.5,0.8-2.2,0.8c-0.8-0.1-1.5-0.3-2.1-0.7
		s-1.1-1.1-1.3-2s-0.2-1.9,0.2-3l8.4-21.7c0.4-1.3,0.9-2.4,1.5-3.3c0.5-0.9,1.1-1.5,1.7-2c0.6-0.5,1.2-0.8,1.8-1s1.3-0.3,2.1-0.3
		s1.4,0.1,2.1,0.3c0.6,0.2,1.2,0.5,1.8,1s1.2,1.1,1.7,2s1,2,1.5,3.3l8.4,21.7c0.3,1.1,0.4,2.1,0.2,3s-0.7,1.5-1.3,2
		c-0.7,0.4-1.4,0.6-2.1,0.7c-0.8,0.1-1.5-0.2-2.2-0.8s-1.3-1.4-1.6-2.4L166.1,39.5z M159.3,20.3l-5,14.3h10.1L159.3,20.3z"/>
	<path class="st1" d="M188.2,47.2c-1.7-0.5-3.2-1.2-4.5-2.2s-2.3-2.2-3-3.8s-1.1-3.3-1.1-5.3V18.5c0-1.3,0.4-2.4,1.2-3.4
		c0.8-0.9,1.8-1.4,3-1.4s2.2,0.5,3,1.4s1.3,2.1,1.3,3.4v17.2c0,2,0.6,3.5,1.7,4.5c1.2,1,2.5,1.5,4.1,1.5s3-0.5,4.2-1.5
		s1.7-2.5,1.7-4.5V18.5c0-1.3,0.4-2.4,1.2-3.4c0.8-0.9,1.8-1.4,3-1.4s2.2,0.5,3,1.4s1.3,2.1,1.3,3.4v17.3c0,2.6-0.6,4.8-1.9,6.7
		c-1.2,1.8-2.9,3.2-5.1,4.1c-2.1,0.9-4.6,1.3-7.4,1.3C191.8,48,189.9,47.7,188.2,47.2z"/>
	<path class="st1" d="M216,46c-0.7-0.7-1-1.6-1-2.7V18.6c0-1.5,0.4-2.7,1.2-3.6c0.8-0.9,1.8-1.3,3-1.3c1.7,0,3.4,1.3,5.1,3.9
		l13.6,17.6V17.5c0-1,0.3-1.9,1-2.7c0.7-0.7,1.5-1.1,2.5-1.1s1.8,0.4,2.5,1.1c0.7,0.8,1.1,1.6,1.1,2.7v22.7c0,1,0,1.9-0.1,2.6
		c-0.1,0.7-0.3,1.5-0.6,2.2s-0.7,1.2-1.3,1.6c-0.6,0.4-1.3,0.6-2.1,0.6c-0.9,0-1.7-0.3-2.5-1s-1.7-1.6-2.5-2.9l-13.7-18v18.1
		c0,1-0.4,1.9-1.1,2.7c-0.7,0.8-1.6,1.1-2.5,1.1C217.5,47.1,216.7,46.7,216,46z"/>
	<path class="st1" d="M260.8,46.8c-2-0.8-3.7-1.8-5.2-3.3c-1.5-1.4-2.7-3.2-3.5-5.4c-0.9-2.2-1.3-4.7-1.3-7.4c0-2.8,0.4-5.3,1.3-7.5
		c0.9-2.2,2.1-4.1,3.6-5.6c1.5-1.5,3.3-2.6,5.4-3.5c2.1-0.8,4.3-1.2,6.7-1.2c2.1,0,3.9,0.2,5.6,0.7c1.1,0.3,2.3,0.8,3.8,1.6
		c0.5,0.3,0.9,0.7,1.2,1.1c0.3,0.4,0.5,0.9,0.5,1.3c0.1,0.4,0.1,0.9,0,1.4s-0.2,0.9-0.5,1.2c-0.3,0.3-0.6,0.6-0.9,0.9
		c-0.4,0.2-0.8,0.4-1.3,0.4s-1-0.1-1.5-0.3c-2.3-1-4.4-1.5-6.3-1.5c-1,0-1.9,0.1-2.7,0.2s-1.6,0.4-2.4,0.9s-1.4,1.1-1.9,1.8
		c-0.5,0.8-0.9,1.8-1.2,3.2c-0.3,1.3-0.5,2.9-0.5,4.8c0,3.5,0.7,6.2,2.1,8s3.5,2.7,6.3,2.7c1.2,0,2.5-0.2,3.9-0.6
		c1.4-0.4,2.7-0.9,3.9-1.5c0.7-0.4,1.4-0.3,2.1,0.1c0.8,0.5,1.2,1.2,1.4,2.1c0.2,1.3-0.3,2.5-1.6,3.5c-2.7,2.1-6.2,3.1-10.3,3.1
		C264.9,48,262.8,47.6,260.8,46.8z"/>
	<path class="st1" d="M285.2,45.7c-0.8-0.9-1.2-2.1-1.2-3.4V18.4c0-1.3,0.4-2.4,1.2-3.4c0.8-0.9,1.8-1.4,3-1.4s2.2,0.5,3,1.4
		s1.2,2.1,1.2,3.4v8h11.9v-8c0-1.3,0.4-2.4,1.2-3.4c0.8-0.9,1.8-1.4,3-1.4s2.2,0.5,3,1.4s1.2,2.1,1.2,3.4v23.9
		c0,1.3-0.4,2.4-1.2,3.4c-0.8,0.9-1.8,1.4-3,1.4s-2.2-0.5-3-1.4s-1.2-2.1-1.2-3.4v-9h-11.9v9c0,1.3-0.4,2.4-1.2,3.4
		c-0.8,0.9-1.8,1.4-3,1.4C287.1,47.1,286.1,46.6,285.2,45.7z"/>
</g>
</svg>
