<?xml version="1.0" encoding="utf-8"?>
<!-- Generator: Adobe Illustrator 24.0.1, SVG Export Plug-In . SVG Version: 6.00 Build 0)  -->
<svg version="1.1" id="Calque_1" xmlns="http://www.w3.org/2000/svg" xmlns:xlink="http://www.w3.org/1999/xlink" x="0px" y="0px"
	 viewBox="0 0 64.9 60.4" style="enable-background:new 0 0 64.9 60.4;" xml:space="preserve">
<style type="text/css">
	.st0{fill:#FF9800;}
	.st1{fill:#FFA726;}
	.st2{fill:#FFB74D;}
	.st3{fill:#424242;}
	.st4{fill:#784719;}
	.st5{fill:#FFFFFF;}
	.st6{fill:#D32F2F;}
	.st7{fill:#546E7A;}
</style>
<g transform="translate(-22 -44.825)">
	<g transform="translate(22 44.825)">
		<g>
			<g transform="translate(0 0)">
				<g transform="translate(0 39.411)">
					<path class="st0" d="M32.4,9l-7-8.4v-8.4h14v8.4L32.4,9z"/>
					<g transform="translate(6.987 18.166)">
						<circle class="st1" cx="38" cy="-34.3" r="2.8"/>
						<circle class="st1" cx="12.9" cy="-34.3" r="2.8"/>
					</g>
					<path class="st2" d="M45-24.6c0-10.6-25.2-7-25.2,0v9.8c0.1,6.9,5.7,12.5,12.7,12.5C39.4-2.4,44.9-7.9,45-14.8V-24.6z"/>
					<path class="st3" d="M32.4-37.1c-8.5,0-14,6.9-14,15.4v3.2l2.8,2.4v-7L38-28.8l5.6,5.6v7l2.8-2.4v-3.2c0-5.6-1.4-11.2-8.4-12.6
						l-1.4-2.8H32.4z"/>
					<g transform="translate(15.372 19.564)">
						<circle class="st4" cx="22.6" cy="-35.7" r="1.4"/>
						<circle class="st4" cx="11.5" cy="-35.7" r="1.4"/>
					</g>
					<path class="st5" d="M32.4,17.4l-7-16.8l7,1.4l7-1.4L32.4,17.4z"/>
					<path class="st6" d="M31,6.2l-1,6.3l2.4,5.6l2.4-5.6l-1-6.3l1.4-1.4L32.4,2l-2.8,2.8L31,6.2z"/>
					<path class="st7" d="M39.4,0.6L39.4,0.6l-7,16.8l-7-16.8c0,0-15.4,2.8-15.4,18.2h44.7C54.8,3.4,39.4,0.6,39.4,0.6z"/>
				</g>
			</g>
		</g>
	</g>
</g>
</svg>
