<svg xmlns="http://www.w3.org/2000/svg" xmlns:xlink="http://www.w3.org/1999/xlink" width="54.019" height="73.312" viewBox="0 0 54.019 73.312"><defs><style>.a{fill:#90caf9;}.b{clip-path:url(#a);}.c{fill:#3f51b5;}.d{fill:#fff59d;}.e{fill:#4caf50;}.f{fill:#fff;}</style><clipPath id="a"><path class="a" d="M59.019,77.312H5V4H41.656L59.019,21.363Z" transform="translate(0 0)"/></clipPath></defs><g transform="translate(-6 -2)"><g class="b" transform="translate(1 -2)"><g transform="translate(5 13.646)"><circle class="c" cx="19.293" cy="19.293" r="19.293" transform="translate(0 0)"/><path class="d" d="M22.71,17.543V19.73H17.822v1.8H22.71v2.187H17.822a4.9,4.9,0,0,0,.386,2.058,3.283,3.283,0,0,0,.9,1.286,4.991,4.991,0,0,0,1.415.772,7.591,7.591,0,0,0,1.8.257,5.276,5.276,0,0,0,1.415-.129,3.775,3.775,0,0,0,1.286-.386l.514,3.473a7.591,7.591,0,0,1-1.8.257,9.735,9.735,0,0,1-1.929.129,9.591,9.591,0,0,1-3.344-.514A5.572,5.572,0,0,1,15.893,29.5a7.116,7.116,0,0,1-1.8-2.444,8.6,8.6,0,0,1-.643-3.344H11.005V21.53h2.444v-1.8H11.005V17.543h2.444a12.762,12.762,0,0,1,.772-3.344,8.605,8.605,0,0,1,1.8-2.444,6.805,6.805,0,0,1,2.7-1.415,9.591,9.591,0,0,1,3.344-.514,7.334,7.334,0,0,1,1.672.129,7.854,7.854,0,0,1,1.672.386L24.9,13.813c-.386-.129-.772-.257-1.286-.386A5.276,5.276,0,0,0,22.2,13.3a7.591,7.591,0,0,0-1.8.257,2.187,2.187,0,0,0-1.286.772,4.619,4.619,0,0,0-.9,1.286,4.3,4.3,0,0,0-.386,1.929Z" transform="translate(-0.459 -0.823)"/><circle class="e" cx="19.293" cy="19.293" r="19.293" transform="translate(15.434 15.434)"/><path class="f" d="M29.09,28.868a2.691,2.691,0,0,0,.514.772,2.307,2.307,0,0,0,.9.643,15.088,15.088,0,0,0,1.415.643c.9.386,1.8.772,2.572,1.158A7.493,7.493,0,0,1,36.421,33.5a5.8,5.8,0,0,1,1.286,1.8,6.856,6.856,0,0,1,.514,2.444,6.231,6.231,0,0,1-.386,2.315,5.038,5.038,0,0,1-2.958,2.958,15.55,15.55,0,0,1-2.315.643v2.83H30.248v-2.83a14.954,14.954,0,0,1-2.315-.514A3.951,3.951,0,0,1,26,41.858,5.877,5.877,0,0,1,24.589,39.8a6.778,6.778,0,0,1-.514-2.958h4.244a5.708,5.708,0,0,0,.257,1.672,2.313,2.313,0,0,0,.772,1.158,2.8,2.8,0,0,0,1.029.643,3.561,3.561,0,0,0,1.158.129,2.855,2.855,0,0,0,1.158-.129,2.073,2.073,0,0,0,.9-.514,2.691,2.691,0,0,0,.514-.772A2.507,2.507,0,0,0,34.235,38a2.507,2.507,0,0,0-.129-1.029,3.224,3.224,0,0,0-.514-.9,2.307,2.307,0,0,0-.9-.643,15.087,15.087,0,0,0-1.415-.643c-.9-.386-1.8-.772-2.572-1.158a7.493,7.493,0,0,1-1.929-1.415,5.8,5.8,0,0,1-1.286-1.8,6.856,6.856,0,0,1-.514-2.444,6.008,6.008,0,0,1,.386-2.186,5.4,5.4,0,0,1,1.158-1.8,9.13,9.13,0,0,1,1.8-1.286,12.173,12.173,0,0,1,2.315-.643V18.965h2.315v3.087a8.175,8.175,0,0,1,2.315.772,4.478,4.478,0,0,1,1.672,1.415A5.365,5.365,0,0,1,38.093,26.3a8.293,8.293,0,0,1,.386,2.572H34.235a3.619,3.619,0,0,0-.772-2.572,2.735,2.735,0,0,0-1.929-.9,3.755,3.755,0,0,0-1.158.257,2.691,2.691,0,0,0-.772.514,1.112,1.112,0,0,0-.386.772,2.507,2.507,0,0,0-.129,1.029C28.962,28.225,29.09,28.611,29.09,28.868Z" transform="translate(3.579 2)"/></g></g></g></svg>