<svg xmlns="http://www.w3.org/2000/svg" width="76" height="76" viewBox="0 0 76 76"><defs><style>.a{fill:#0d0d0d;}.b{fill:#fff;}</style></defs><circle class="a" cx="38" cy="38" r="38"/><path class="b" d="M19,34.633C19,28.761,24.812,24,31.981,24a2.4,2.4,0,0,1,2.6,2.127,2.459,2.459,0,0,1-2.629,2.127c-4.289.015-7.756,2.867-7.756,6.38V35.7h7.789c2.151,0,3.894,1.428,3.894,3.19v9.57c0,1.762-1.744,3.19-3.894,3.19H22.894c-2.151,0-3.894-1.428-3.894-3.19ZM42.367,48.456c0,1.762,1.744,3.19,3.894,3.19h9.087c2.151,0,3.894-1.428,3.894-3.19v-9.57c0-1.762-1.744-3.19-3.894-3.19H47.559V34.633c0-3.513,3.467-6.365,7.756-6.38a2.459,2.459,0,0,0,2.629-2.127A2.4,2.4,0,0,0,55.348,24c-7.169,0-12.981,4.761-12.981,10.633Z" transform="translate(-1 0.149)"/></svg>